HIERARCHY
ROOT Hips
{
	OFFSET 0.000000 0.000000 0.000000 
	CHANNELS 6 Xposition Yposition Zposition Yrotation Zrotation Xrotation 
	JOINT Lumbar
	{
		OFFSET 0.000000 0.000000 0.000000 
		CHANNELS 3 Zrotation Xrotation Yrotation
		JOINT Neck
		{
			OFFSET 0.000000 0.445665 0.000000 
			CHANNELS 3 Zrotation Xrotation Yrotation
			End Site
			{
				OFFSET 0.000000 0.227535 0.000000 
			}
		}
		JOINT RightShoulder
		{
			OFFSET 0.019635 0.377685 0.194865 
			CHANNELS 3 Zrotation Xrotation Yrotation
			JOINT RightElbow
			{
				OFFSET 0.000000 -0.243375 0.000000 
				CHANNELS 2 Zrotation Yrotation
				JOINT RightWrist
				{
					OFFSET 0.000000 -0.264825 0.000000 
					CHANNELS 2 Zrotation Xrotation
					End Site
					{
						OFFSET 0.006600 -0.176220 0.000990 
					}
				}
			}
		}
		JOINT LeftShoulder
		{
			OFFSET 0.019635 0.377685 -0.194865 
			CHANNELS 3 Zrotation Xrotation Yrotation
			JOINT LeftElbow
			{
				OFFSET 0.000000 -0.243375 0.000000 
				CHANNELS 2 Zrotation Yrotation
				JOINT LeftWrist
				{
					OFFSET 0.000000 -0.264825 0.000000 
					CHANNELS 2 Zrotation Xrotation
					End Site
					{
						OFFSET 0.006600 -0.176220 -0.000990 
					}
				}
			}
		}
	}
	JOINT RightHip
	{
		OFFSET 0.052140 -0.069960 0.075570 
		CHANNELS 3 Zrotation Xrotation Yrotation
		JOINT RightKnee
		{
			OFFSET 0.000000 -0.402270 0.000000 
			CHANNELS 1 Zrotation
			JOINT RightAnkle
			{
				OFFSET 0.000000 -0.404085 0.000000 
				CHANNELS 3 Zrotation Xrotation Yrotation
				End Site
				{
					OFFSET 0.204105 -0.089430 0.008415 
				}
			}
		}
	}
	JOINT LeftHip
	{
		OFFSET 0.052140 -0.069960 -0.075570 
		CHANNELS 3 Zrotation Xrotation Yrotation
		JOINT LeftKnee
		{
			OFFSET 0.000000 -0.402270 0.000000 
			CHANNELS 1 Zrotation
			JOINT LeftAnkle
			{
				OFFSET 0.000000 -0.404085 0.000000 
				CHANNELS 3 Zrotation Xrotation Yrotation
				End Site
				{
					OFFSET 0.204105 -0.089430 -0.008415 
				}
			}
		}
	}
}
MOTION
Frames: 13
Frame Time: 0.02
-0.01776 0.31092 -0.33608 221.74309 0 4.33159 -56.06391 1.82535 52.0462 -73.79683 43.14321 8.79889 148.01226 -32.75862 50.94197 35.65545 134.43658 -48.87549 -10.09952 148.90145 -9.23148 -41.68 20.36643 -83.44808 -14.40054 5.61927 -16.09878 -18.63542 0.46111 -96.31803 -38.14497 -3.43449 -1.19798 34.31049 -13.8932 20.5293 -147.22056 23.79492 39.90216 17.34178
-0.01774 0.3109 -0.33608 221.74544 0 4.33126 -56.06392 1.82935 52.07317 -73.79685 43.1433 8.90816 148.06667 -32.77441 50.93066 35.6012 134.35414 -48.91989 -10.07401 149.04022 -9.2948 -41.75792 20.23591 -83.46586 -13.98788 5.41749 -16.09878 -18.643 0.46379 -96.32374 -38.13129 -3.42898 -1.169 34.242 -13.72206 20.55554 -147.2218 23.3198 37.92891 16.32622
-0.01773 0.31092 -0.33607 221.7468 0 4.32918 -56.06392 1.83467 52.11131 -73.79688 43.14341 9.05838 148.15631 -32.77834 50.89166 35.50977 134.15008 -48.952 -10.02048 149.2571 -9.38682 -41.82333 20.01811 -83.3836 -13.36165 5.142 -16.09878 -18.65671 0.46653 -96.32606 -38.11178 -3.43209 -1.12456 34.15422 -13.4976 20.59261 -147.21793 22.68831 35.35337 14.98669
-0.01771 0.31092 -0.33607 221.74852 0 4.32799 -56.06392 1.83918 52.14251 -73.79691 43.14351 9.18255 148.22671 -32.78625 50.86628 35.43863 134.00798 -48.98638 -9.98152 149.42823 -9.46172 -41.88935 19.84941 -83.37156 -12.86064 4.90909 -16.09878 -18.6672 0.4692 -96.33011 -38.09526 -3.43155 -1.08862 34.08005 -13.31023 20.62274 -147.21681 22.16412 33.19901 13.87135
-0.0177 0.31094 -0.33606 221.7499 0 4.32615 -56.06392 1.84344 52.18135 -73.79694 43.14363 9.33746 148.31032 -32.79971 50.83651 35.35345 133.83833 -49.03458 -9.93494 149.63755 -9.55304 -41.9719 19.64707 -83.26273 -12.24917 4.64199 -16.09878 -18.68104 0.47232 -96.33356 -38.07552 -3.42919 -1.0438 33.98629 -13.0706 20.66138 -147.2142 21.4929 30.44517 12.44405
-0.01769 0.31093 -0.33606 221.75218 0 4.32538 -56.06392 1.84917 52.20715 -73.79696 43.1437 9.4388 148.37498 -32.79928 50.8095 35.28856 133.69718 -49.05182 -9.89756 149.7886 -9.61764 -42.01945 19.49098 -83.32513 -11.81174 4.42679 -16.09878 -18.68844 0.47437 -96.33732 -38.06218 -3.43339 -1.01532 33.92785 -12.92479 20.68505 -147.21336 21.08406 28.76988 11.57513
-0.0177 0.31089 -0.33605 221.75532 0 4.32746 -56.06392 1.85608 52.19246 -73.79694 43.14363 9.37607 148.37829 -32.75913 50.79449 35.28891 133.66115 -48.97811 -9.89195 149.75009 -9.59734 -41.96684 19.49226 -83.92911 -11.93408 4.37617 -16.09878 -18.68089 0.47388 -96.34366 -38.06295 -3.44767 -1.02972 33.97887 -13.07128 20.6625 -147.21862 21.49452 30.45247 12.4484
-0.01773 0.31082 -0.33605 221.75978 0 4.33079 -56.06392 1.86496 52.16459 -73.79691 43.14351 9.25914 148.36146 -32.70611 50.78353 35.31084 133.65836 -48.875 -9.89658 149.65263 -9.55016 -41.8813 19.54046 -84.69959 -12.23382 4.3796 -16.09878 -18.66577 0.47219 -96.3503 -38.07133 -3.46916 -1.06243 34.06489 -13.31064 20.62485 -147.22578 22.16489 33.20247 13.87437
-0.01775 0.31077 -0.33605 221.76501 0 4.33395 -56.06392 1.87482 52.14393 -73.79688 43.14342 9.17108 148.35411 -32.66189 50.77235 35.32282 133.6426 -48.79099 -9.89687 149.589 -9.51782 -41.81572 19.56138 -85.3649 -12.43289 4.35504 -16.09878 -18.651 0.47071 -96.35615 -38.07992 -3.49161 -1.09113 34.12996 -13.49369 20.59558 -147.23205 22.6776 35.30495 14.96451
-0.01777 0.31071 -0.33604 221.76462 0 4.33545 -56.06392 1.87706 52.11854 -73.79685 43.1433 9.06668 148.34646 -32.60517 50.75372 35.33434 133.61419 -48.68294 -9.89502 149.49827 -9.4747 -41.72841 19.60582 -86.15333 -12.7062 4.34066 -16.09878 -18.64913 0.47063 -96.36445 -38.07346 -3.4975 -1.10142 34.21505 -13.73273 20.56044 -147.23831 23.34709 38.05221 16.39067
-0.01779 0.31066 -0.33604 221.77599 0 4.34063 -56.06391 1.89528 52.09966 -73.79683 43.14322 8.98275 148.33441 -32.57114 50.75151 35.35216 133.62084 -48.61737 -9.90024 149.44901 -9.44814 -41.67887 19.61185 -86.72364 -12.87362 4.3211 -16.09878 -18.61899 0.46739 -96.36799 -38.09939 -3.53819 -1.15415 34.26777 -13.88005 20.53359 -147.24508 23.75969 39.74292 17.2651
-0.01783 0.31065 -0.33607 221.82206 0 4.35658 -56.06392 1.96042 52.10264 -73.79685 43.14329 8.9698 148.31332 -32.60683 50.79744 35.38441 133.72332 -48.68302 -9.92426 149.52804 -9.46616 -41.74075 19.51573 -86.6747 -12.67193 4.25403 -16.09878 -18.50852 0.45529 -96.35622 -38.22047 -3.68427 -1.32392 34.21567 -13.73257 20.53532 -147.25307 23.34792 38.0356 16.37019
-0.01788 0.31065 -0.33611 221.87948 0 4.37604 -56.06392 2.04102 52.11246 -73.79688 43.14341 8.97896 148.28871 -32.66518 50.85924 35.42203 133.85928 -48.79131 -9.95488 149.65045 -9.50282 -41.84197 19.37736 -86.398 -12.36422 4.18325 -16.09878 -18.37058 0.44012 -96.33998 -38.37261 -3.86314 -1.53504 34.13101 -13.49299 20.54555 -147.26148 22.67806 35.26774 14.92114
